<svg width="78.000000" height="80.000000" viewBox="0 0 78 80" fill="none" xmlns="http://www.w3.org/2000/svg" xmlns:xlink="http://www.w3.org/1999/xlink">
	<desc>
			Created with Pixso.
	</desc>
	<defs>
		<clipPath id="clip96_45">
			<rect id="icon_gift" width="78.000000" height="80.000000" fill="white" fill-opacity="0"/>
		</clipPath>
	</defs>
	<rect id="icon_gift" width="78.000000" height="80.000000" fill="#FFFFFF" fill-opacity="0"/>
	<g clip-path="url(#clip96_45)">
		<path id="Vector" d="M64.0156 34.7129L14.031 34.7129C12.2766 34.7129 10.8494 33.2954 10.8494 31.5527L10.8494 22.0845C10.8494 20.3418 12.2766 18.9236 14.031 18.9236L64.015 18.9236C65.7687 18.9236 67.1953 20.3418 67.1953 22.0845L67.1953 31.5532C67.1959 33.2954 65.7693 34.7129 64.0156 34.7129ZM14.031 21.3457C13.6276 21.3457 13.2869 21.6843 13.2869 22.0845L13.2869 31.5532C13.2869 31.9602 13.6209 32.2915 14.031 32.2915L64.015 32.2915C64.4245 32.2915 64.7578 31.9602 64.7578 31.5532L64.7578 22.0845C64.7578 21.6836 64.4171 21.3457 64.015 21.3457L14.031 21.3457Z" fill="#FFFFFF" fill-opacity="1.000000" fill-rule="nonzero"/>
		<path id="Vector" d="M57.0447 67.1492L20.999 67.1492C17.6218 67.1492 14.8741 64.4194 14.8741 61.0627L14.8741 33.502C14.8741 32.8333 15.4202 32.2908 16.0929 32.2908C16.7656 32.2908 17.3116 32.8333 17.3116 33.502L17.3116 61.0627C17.3116 63.0835 18.9661 64.7271 20.999 64.7271L57.0447 64.7271C59.077 64.7271 60.7308 63.0835 60.7308 61.0627L60.7308 33.502C60.7308 32.8333 61.2768 32.2908 61.9496 32.2908C62.6223 32.2908 63.1683 32.8333 63.1683 33.502L63.1683 61.0627C63.1683 64.4194 60.4213 67.1492 57.0447 67.1492Z" fill="#FFFFFF" fill-opacity="1.000000" fill-rule="nonzero"/>
		<path id="Vector" d="M39.0225 67.1492C38.3498 67.1492 37.8038 66.6072 37.8038 65.938L37.8038 33.502C37.8038 32.8333 38.3498 32.2908 39.0225 32.2908C39.6953 32.2908 40.2413 32.8333 40.2413 33.502L40.2413 65.9375C40.2413 66.6072 39.6959 67.1492 39.0225 67.1492Z" fill="#FFFFFF" fill-opacity="1.000000" fill-rule="nonzero"/>
		<path id="Vector" d="M23.8113 21.3416C19.9966 19.2876 18.5731 14.533 20.6383 10.7417C22.7022 6.95215 27.4864 5.53711 31.303 7.5874C37.117 10.7168 40.2565 19.4475 40.3869 19.8174L38.0877 20.6211C38.0585 20.5386 35.1256 12.3997 30.1433 9.71777C27.5078 8.302 24.2062 9.2793 22.7821 11.8945C21.3567 14.5125 22.3391 17.7944 24.9734 19.2119L23.8113 21.3416Z" fill="#FFFFFF" fill-opacity="1.000000" fill-rule="nonzero"/>
		<path id="Vector" d="M54.2313 21.3416L53.071 19.2114C54.3477 18.5239 55.2782 17.385 55.6926 16.0039C56.1063 14.6221 55.9534 13.1626 55.2617 11.8953C54.5719 10.6267 53.4263 9.70264 52.0363 9.2915C50.6457 8.88037 49.1783 9.03174 47.9023 9.71777C42.9201 12.3989 39.9871 20.5381 39.9579 20.6204L37.6587 19.8169C37.7891 19.4468 40.928 10.7163 46.7421 7.5874C48.5897 6.59326 50.7182 6.37402 52.7316 6.96973C54.7468 7.56494 56.4061 8.90503 57.4061 10.7417C58.4073 12.5776 58.6285 14.6917 58.0289 16.6941C57.4287 18.696 56.0801 20.3462 54.2313 21.3416Z" fill="#FFFFFF" fill-opacity="1.000000" fill-rule="nonzero"/>
		<path id="Vector" d="M61.9496 50.9316L16.0929 50.9316C15.4202 50.9316 14.8741 50.3892 14.8741 49.7207C14.8741 49.052 15.4202 48.5095 16.0929 48.5095L61.9496 48.5095C62.6223 48.5095 63.1683 49.052 63.1683 49.7207C63.1683 50.3892 62.623 50.9316 61.9496 50.9316Z" fill="#FFFFFF" fill-opacity="1.000000" fill-rule="nonzero"/>
	</g>
</svg>
