<svg>
	<symbol id="icon-instagram" fill="none" xmlns="http://www.w3.org/2000/svg" xmlns:xlink="http://www.w3.org/1999/xlink">
		<defs>
			<clipPath id="clip37_308">
				<rect id="icon_instagram" width="16" height="16" fill="" fill-opacity="0"/>
			</clipPath>
		</defs>
		<rect width="16" height="16" fill="#FFFFFF" fill-opacity="0"/>
		<g clip-path="url(#clip37_308)">
			<path id="Vector" class="icon-style" d="M7.98438 0.0625C9.3177 0.0625 10.4062 0.078125 11.25 0.109375C11.9688 0.140625 12.6094 0.265625 13.1719 0.484375C13.7135 0.692627 14.1823 0.994873 14.5781 1.39062C14.974 1.78638 15.276 2.25513 15.4844 2.79688C15.7031 3.35938 15.8281 4 15.8594 4.71875C15.8906 5.5625 15.9062 6.65112 15.9062 7.98438C15.9062 9.31763 15.8906 10.4062 15.8594 11.25C15.8281 11.9688 15.7031 12.6094 15.4844 13.1719C15.276 13.7136 14.974 14.1824 14.5781 14.5781C14.1823 14.9739 13.7135 15.2761 13.1719 15.4844C12.6094 15.7031 11.9688 15.8281 11.25 15.8594C10.4062 15.8906 9.3177 15.9062 7.98438 15.9062C6.65105 15.9062 5.5625 15.8906 4.71875 15.8594C4 15.8281 3.35938 15.7031 2.79688 15.4844C2.2552 15.2761 1.78645 14.9739 1.39062 14.5781C0.994797 14.1824 0.692703 13.7136 0.484375 13.1719C0.265625 12.6094 0.140625 11.9688 0.109375 11.25C0.078125 10.4062 0.0625 9.31763 0.0625 7.98438C0.0625 6.65112 0.078125 5.5625 0.109375 4.71875C0.140625 4 0.265625 3.35938 0.484375 2.79688C0.692703 2.25513 0.994797 1.78638 1.39062 1.39062C1.78645 0.994873 2.2552 0.692627 2.79688 0.484375C3.35938 0.265625 4 0.140625 4.71875 0.109375C5.5625 0.078125 6.65105 0.0625 7.98438 0.0625ZM7.98438 1.09375C6.59895 1.09375 5.46875 1.10938 4.59375 1.14062C4.03125 1.16138 3.51042 1.2605 3.03125 1.4375C2.28125 1.75 1.75 2.28125 1.4375 3.03125C1.26042 3.5105 1.16145 4.03125 1.14062 4.59375C1.10938 5.46875 1.09375 6.59888 1.09375 7.98438C1.09375 9.36987 1.10938 10.5 1.14062 11.375C1.16145 11.9375 1.26042 12.4583 1.4375 12.9375C1.75 13.6875 2.28125 14.2188 3.03125 14.5312C3.51042 14.7083 4.03125 14.8074 4.59375 14.8281C5.46875 14.8594 6.59895 14.875 7.98438 14.875C9.3698 14.875 10.5 14.8594 11.375 14.8281C11.9375 14.8074 12.4583 14.7083 12.9375 14.5312C13.6875 14.2188 14.2188 13.6875 14.5312 12.9375C14.7083 12.4583 14.8073 11.9375 14.8281 11.375C14.8594 10.5 14.875 9.36987 14.875 7.98438C14.875 6.59888 14.8594 5.46875 14.8281 4.59375C14.8073 4.03125 14.7083 3.5105 14.5312 3.03125C14.2188 2.28125 13.6875 1.75 12.9375 1.4375C12.4583 1.2605 11.9375 1.16138 11.375 1.14062C10.5 1.10938 9.3698 1.09375 7.98438 1.09375ZM7.98438 11.1562C8.85938 11.1562 9.60677 10.8464 10.2266 10.2266C10.8464 9.60669 11.1562 8.85938 11.1562 7.98438C11.1562 7.10938 10.8464 6.36206 10.2266 5.74219C9.60677 5.12231 8.85938 4.8125 7.98438 4.8125C7.10938 4.8125 6.36198 5.12231 5.74219 5.74219C5.12239 6.36206 4.8125 7.10938 4.8125 7.98438C4.8125 8.85938 5.12239 9.60669 5.74219 10.2266C6.36198 10.8464 7.10938 11.1562 7.98438 11.1562ZM7.98438 3.92188C9.10938 3.92188 10.0677 4.31763 10.8594 5.10938C11.651 5.90112 12.0469 6.85938 12.0469 7.98438C12.0469 9.10938 11.651 10.0676 10.8594 10.8594C10.0677 11.6511 9.10938 12.0469 7.98438 12.0469C6.85938 12.0469 5.90105 11.6511 5.10938 10.8594C4.3177 10.0676 3.92188 9.10938 3.92188 7.98438C3.92188 6.85938 4.3177 5.90112 5.10938 5.10938C5.90105 4.31763 6.85938 3.92188 7.98438 3.92188ZM13.1719 3.76562C13.1719 4.02612 13.0781 4.24731 12.8906 4.42969C12.7031 4.61206 12.474 4.70312 12.2031 4.70312C11.9427 4.70312 11.7214 4.61206 11.5391 4.42969C11.3568 4.24731 11.2656 4.02612 11.2656 3.76562C11.2656 3.49487 11.3568 3.26562 11.5391 3.07812C11.7214 2.89062 11.9427 2.79688 12.2031 2.79688C12.4635 2.79688 12.6901 2.89331 12.8828 3.08594C13.0755 3.27856 13.1719 3.50513 13.1719 3.76562Z" fill="#666666" fill-opacity="1.000000" fill-rule="nonzero"/>
		</g>
	</symbol>
	<symbol id="icon-vkontakte" fill="none" xmlns="http://www.w3.org/2000/svg" xmlns:xlink="http://www.w3.org/1999/xlink">
		<defs>
			<clipPath id="clip37_306">
				<rect id="icon_vkontakte" width="23" height="16" fill="white" fill-opacity="0"/>
			</clipPath>
		</defs>
		<rect id="icon_vkontakte" width="23" height="16" fill="#FFFFFF" fill-opacity="0"/>
		<g clip-path="url(#clip37_306)" class="ok">
			<path id="Vector" class="ok" d="M0.0700912 3.99268C0.0700912 3.37085 0.49321 3.0354 1.33945 2.98682L4.6004 3.00513C4.81925 3.00513 4.96516 3.09644 5.03811 3.2793C5.37368 4.19385 5.74938 4.9834 6.16521 5.64795C6.58103 6.31226 7.12453 7.07739 7.79568 7.94312C7.85404 8.05298 7.94888 8.10767 8.08019 8.10767C8.18233 8.10767 8.26257 8.06519 8.32093 7.97974L8.38659 7.77856L8.40848 4.6145C8.40848 4.39502 8.34647 4.24878 8.22245 4.17554C8.09843 4.10229 7.86864 4.04761 7.53306 4.01099C7.27043 3.97437 7.13911 3.84033 7.13911 3.60864C7.13911 3.55981 7.14641 3.52319 7.161 3.49878C7.4674 2.7063 8.34282 2.31006 9.78726 2.31006L11.0129 2.29175C11.5673 2.29175 12.0269 2.40747 12.3916 2.63916C12.7564 2.87085 12.9388 3.23682 12.9388 3.73657L12.9388 7.88818C13.0409 7.94922 13.1357 7.97974 13.2233 7.97974C13.4421 7.97974 13.6318 7.87012 13.7923 7.65063C15.3973 5.77295 16.2654 4.51685 16.3967 3.88281C16.3967 3.87085 16.4113 3.84033 16.4405 3.7915C16.5426 3.60864 16.7104 3.4502 16.9438 3.31592C17.1773 3.18188 17.3815 3.09033 17.5566 3.0415C17.615 3.01733 17.6806 3.00513 17.7536 3.00513L21.1459 3.00513L21.3647 3.02344C21.6565 3.02344 21.8827 3.13916 22.0432 3.37085C22.1015 3.44409 22.1416 3.52319 22.1635 3.60864C22.1854 3.69385 22.2 3.7793 22.2073 3.86475C22.2146 3.94995 22.2182 3.99878 22.2182 4.01099L22.2182 4.13892C22.1161 4.63892 21.8571 5.17236 21.4413 5.73926C21.0255 6.30615 20.4966 6.91895 19.8546 7.57739C19.2126 8.23584 18.8114 8.6687 18.6509 8.87598C18.5196 9.02222 18.4539 9.15625 18.4539 9.27832C18.4539 9.37573 18.5123 9.4856 18.629 9.60742L21.8243 12.9727C21.9994 13.168 22.0869 13.3811 22.0869 13.6128C22.0869 13.8933 21.9556 14.125 21.693 14.3079C21.4304 14.4907 21.1167 14.5945 20.7519 14.6189L20.3799 14.6372L17.0533 14.6372C17.0387 14.6372 17.0095 14.6401 16.9657 14.6462C16.9219 14.6523 16.8928 14.6553 16.8782 14.6553C16.5572 14.6553 16.2581 14.5396 15.9809 14.3079C15.8787 14.2104 15.193 13.491 13.9236 12.1497C13.8507 12.0645 13.7485 11.9851 13.6172 11.9119C13.5589 12.1072 13.4823 12.3875 13.3874 12.7532C13.2926 13.1191 13.2233 13.3811 13.1795 13.5398L13.1139 13.8506C12.968 14.2773 12.6616 14.5334 12.1947 14.6189L11.8883 14.6372L9.74349 14.6372C8.53249 14.6372 7.32514 14.1738 6.12144 13.2471C4.91773 12.3206 3.8344 11.1226 2.87144 9.65332C1.90848 8.18408 1.01117 6.47388 0.17952 4.52295C0.106567 4.3645 0.0700912 4.18774 0.0700912 3.99268ZM13.2233 8.72974C12.9169 8.72974 12.6397 8.65942 12.3916 8.51929C12.1436 8.37915 12.0196 8.18701 12.0196 7.94312L12.0196 3.73657C12.0196 3.49268 11.9466 3.31909 11.8007 3.21533C11.6548 3.11182 11.3995 3.05981 11.0347 3.05981L9.78726 3.09644C9.15988 3.09644 8.68569 3.18799 8.36471 3.37085C9.00668 3.62695 9.32767 4.0415 9.32767 4.6145L9.32767 7.8335C9.29848 8.13818 9.15259 8.39136 8.88995 8.59253C8.62733 8.7937 8.33553 8.89429 8.01453 8.89429C7.57683 8.89429 7.24125 8.71753 7.0078 8.36377C5.86976 6.92505 5.02351 5.55957 4.46908 4.26709L4.27211 3.7915L1.36134 3.77319C1.17166 3.77319 1.06588 3.78223 1.044 3.80054C1.02211 3.81885 1.01117 3.87085 1.01117 3.95605C1.01117 4.06592 1.02576 4.18164 1.05494 4.30347L1.51453 5.32788C2.74013 7.97363 4.0715 10.0586 5.50864 11.5828C6.94579 13.1069 8.35741 13.8689 9.74349 13.8689L11.932 13.8689C12.0196 13.8689 12.0852 13.8477 12.129 13.8049C12.1728 13.7622 12.2093 13.6799 12.2384 13.5581L12.2822 13.3752L12.698 11.7656C12.8148 11.5461 12.9169 11.3999 13.0044 11.3267C13.1649 11.1926 13.3546 11.1255 13.5735 11.1255C13.9236 11.1255 14.2811 11.3022 14.6459 11.656L16.5061 13.6311C16.6228 13.7898 16.7469 13.8689 16.8782 13.8689L20.4893 13.8689C20.927 13.8689 21.1459 13.7776 21.1459 13.5945C21.1459 13.5337 21.124 13.4727 21.0802 13.4116L17.9068 10.1013C17.6588 9.84521 17.5347 9.57104 17.5347 9.27832C17.5347 8.9856 17.6515 8.70532 17.8849 8.43701C18.0746 8.19312 18.443 7.7876 18.9901 7.2207C19.5373 6.65381 20.0151 6.12329 20.4236 5.62964C20.8322 5.13574 21.1021 4.68774 21.2334 4.2854L21.299 4.04761C21.2845 4.02319 21.2772 3.9834 21.2772 3.92871C21.2772 3.87378 21.2699 3.82812 21.2553 3.7915L17.8193 3.7915C17.6004 3.86475 17.4253 3.97437 17.294 4.12061L17.1627 4.46826C16.7979 5.30957 15.8423 6.60815 14.2957 8.36377C13.9893 8.60767 13.6318 8.72974 13.2233 8.72974Z"/>
		</g>
	</symbol>
	<symbol id="icon-facebook" fill="none" xmlns="http://www.w3.org/2000/svg" xmlns:xlink="http://www.w3.org/1999/xlink">
		<defs>
			<clipPath id="clip37_311">
				<rect id="icon_facebook" width="22" height="22" fill="white" fill-opacity="0"/>
			</clipPath>
		</defs>
		<rect id="icon_facebook" width="22" height="22" fill="#FFFFFF" fill-opacity="0"/>
		<g clip-path="url(#clip37_311)">
			<path id="Vector" d="M13.75 1.83325C12.5344 1.83325 11.3686 2.30664 10.5091 3.14966C9.64955 3.99243 9.16667 5.1355 9.16667 6.32739L9.16667 9.02393L6.41667 9.02393L6.41667 12.6194L9.16667 12.6194L9.16667 19.8101L12.8333 19.8101L12.8333 12.6194L15.5833 12.6194L16.5 9.02393L12.8333 9.02393L12.8333 6.32739C12.8333 6.08911 12.9299 5.86035 13.1018 5.69189C13.2737 5.52319 13.5069 5.42871 13.75 5.42871L16.5 5.42871L16.5 1.83325L13.75 1.83325Z" stroke="#666666" stroke-opacity="1.000000" stroke-width="1.100000" stroke-linejoin="round"/>
		</g>
	</symbol>
</svg>
