<svg width="25.000000" height="30.000000" viewBox="0 0 25 30" fill="none" xmlns="http://www.w3.org/2000/svg" xmlns:xlink="http://www.w3.org/1999/xlink">
	<desc>
			Created with Pixso.
	</desc>
	<defs/>
	<rect id="icon_eat" width="25.000000" height="30.000000" fill="#FFFFFF" fill-opacity="0"/>
	<path id="Knife" d="M18.6174 0.0761719C18.991 -0.0786133 19.4211 0.00695801 19.707 0.292969C20.6155 1.20142 21.8037 3.17065 22.7659 6.21082C23.7373 9.2804 24.5 13.5081 24.5 19C24.5 19.5524 24.0522 20 23.5 20L20 20L20 29C20 29.5524 19.5522 30 19 30C18.4478 30 18 29.5524 18 29L18 1C18 0.595581 18.2437 0.230957 18.6174 0.0761719ZM20 18L22.4912 18C22.4053 13.1836 21.7051 9.48755 20.8591 6.81421C20.5808 5.93457 20.2886 5.17151 20 4.51892L20 18Z" fill="#FFFFFF" fill-opacity="1.000000" fill-rule="evenodd"/>
	<path id="Fork" d="M1.5 0C2.05225 0 2.5 0.447754 2.5 1L2.5 6.5C2.5 7.05688 2.69214 7.81519 3.20093 8.4165C3.55981 8.8407 4.11816 9.2373 5 9.40967L5 1C5 0.447754 5.44775 0 6 0C6.55225 0 7 0.447754 7 1L7 9.40967C7.88184 9.2373 8.44019 8.8407 8.79907 8.4165C9.30786 7.81519 9.5 7.05688 9.5 6.5L9.5 1C9.5 0.447754 9.94775 0 10.5 0C11.0522 0 11.5 0.447754 11.5 1L11.5 6.5C11.5 7.44312 11.1921 8.68481 10.3259 9.7085C9.58643 10.5825 8.49243 11.2344 7 11.4353L7 29C7 29.5522 6.55225 30 6 30C5.44775 30 5 29.5522 5 29L5 11.4353C3.50757 11.2344 2.41357 10.5825 1.67407 9.7085C0.807861 8.68481 0.5 7.44312 0.5 6.5L0.5 1C0.5 0.447754 0.947754 0 1.5 0Z" fill="#FFFFFF" fill-opacity="1.000000" fill-rule="evenodd"/>
</svg>
