<svg width="32.000000" height="33.000000" viewBox="0 0 32 33" fill="none" xmlns="http://www.w3.org/2000/svg" xmlns:xlink="http://www.w3.org/1999/xlink">
	<desc>
			Created with Pixso.
	</desc>
	<defs>
		<clipPath id="clip2403_573">
			<rect id="icon_alarm" width="32.000000" height="33.000000" fill="white" fill-opacity="0"/>
		</clipPath>
	</defs>
	<rect id="icon_alarm" width="32.000000" height="33.000000" fill="#FFFFFF" fill-opacity="0"/>
	<g clip-path="url(#clip2403_573)">
		<ellipse id="Ellipse 3" cx="21.204102" cy="11.329834" rx="1.087304" ry="1.085118" fill="#FFFFFF" fill-opacity="1.000000"/>
		<ellipse id="Ellipse 6" cx="10.331055" cy="11.329834" rx="1.087305" ry="1.085118" fill="#FFFFFF" fill-opacity="1.000000"/>
		<ellipse id="Ellipse 8" cx="10.331055" cy="24.351196" rx="1.087305" ry="1.085118" fill="#FFFFFF" fill-opacity="1.000000"/>
		<ellipse id="Ellipse 9" cx="15.767822" cy="26.521484" rx="1.087305" ry="1.085118" fill="#FFFFFF" fill-opacity="1.000000"/>
		<ellipse id="Ellipse 7" cx="7.069336" cy="17.774780" rx="1.087305" ry="1.085119" fill="#FFFFFF" fill-opacity="1.000000"/>
		<ellipse id="Ellipse 4" cx="24.466309" cy="17.774780" rx="1.087305" ry="1.085119" fill="#FFFFFF" fill-opacity="1.000000"/>
		<ellipse id="Ellipse 5" cx="21.204102" cy="24.351196" rx="1.087304" ry="1.085118" fill="#FFFFFF" fill-opacity="1.000000"/>
		<mask id="mask_2403_583" fill="white">
			<path id="Subtract" d="M22.1384 29.2542C21.8225 28.9298 21.3298 28.8622 20.9214 29.0581C19.3552 29.8094 17.6091 30.229 15.7678 30.229C13.8857 30.229 12.103 29.7906 10.5103 29.0076C10.1003 28.8062 9.60254 28.8718 9.28394 29.199L7.4043 31.1292C7.13672 31.4039 6.69507 31.4039 6.42749 31.1292C6.16992 30.8645 6.16992 30.4427 6.42749 30.1781L7.86182 28.7053C8.28491 28.2709 8.22437 27.5645 7.77173 27.1608C5.17725 24.8477 3.53564 21.4288 3.53564 17.6145C3.53564 10.6477 9.01221 5 15.7678 5C22.5234 5 28 10.6477 28 17.6145C28 21.4689 26.3237 24.9194 23.6821 27.2333C23.2227 27.6355 23.1584 28.3475 23.5842 28.7849L24.9409 30.1781C25.1987 30.4427 25.1987 30.8645 24.9409 31.1292C24.6733 31.4039 24.2319 31.4039 23.9644 31.1292L22.1384 29.2542ZM26.6409 17.6145C26.6409 23.8073 21.7729 28.8274 15.7678 28.8274C9.7627 28.8274 4.89478 23.8073 4.89478 17.6145C4.89478 11.4218 9.7627 6.40161 15.7678 6.40161C21.7729 6.40161 26.6409 11.4218 26.6409 17.6145ZM15.0083 13.5001L15.0083 18.1663C15.0083 18.5857 15.3484 18.9257 15.7676 18.9257C16.2112 18.9257 16.5708 18.5662 16.5708 18.1226L16.5708 9.94092C16.5708 9.5094 16.2209 9.15967 15.7896 9.15967C15.3582 9.15967 15.0083 9.5094 15.0083 9.94092L15.0083 13.5001Z" clip-rule="evenodd" fill="" fill-opacity="1.000000" fill-rule="evenodd"/>
		</mask>
		<path id="Subtract" d="M22.1384 29.2542C21.8225 28.9298 21.3298 28.8622 20.9214 29.0581C19.3552 29.8094 17.6091 30.229 15.7678 30.229C13.8857 30.229 12.103 29.7906 10.5103 29.0076C10.1003 28.8062 9.60254 28.8718 9.28394 29.199L7.4043 31.1292C7.13672 31.4039 6.69507 31.4039 6.42749 31.1292C6.16992 30.8645 6.16992 30.4427 6.42749 30.1781L7.86182 28.7053C8.28491 28.2709 8.22437 27.5645 7.77173 27.1608C5.17725 24.8477 3.53564 21.4288 3.53564 17.6145C3.53564 10.6477 9.01221 5 15.7678 5C22.5234 5 28 10.6477 28 17.6145C28 21.4689 26.3237 24.9194 23.6821 27.2333C23.2227 27.6355 23.1584 28.3475 23.5842 28.7849L24.9409 30.1781C25.1987 30.4427 25.1987 30.8645 24.9409 31.1292C24.6733 31.4039 24.2319 31.4039 23.9644 31.1292L22.1384 29.2542ZM26.6409 17.6145C26.6409 23.8073 21.7729 28.8274 15.7678 28.8274C9.7627 28.8274 4.89478 23.8073 4.89478 17.6145C4.89478 11.4218 9.7627 6.40161 15.7678 6.40161C21.7729 6.40161 26.6409 11.4218 26.6409 17.6145ZM15.0083 13.5001L15.0083 18.1663C15.0083 18.5857 15.3484 18.9257 15.7676 18.9257C16.2112 18.9257 16.5708 18.5662 16.5708 18.1226L16.5708 9.94092C16.5708 9.5094 16.2209 9.15967 15.7896 9.15967C15.3582 9.15967 15.0083 9.5094 15.0083 9.94092L15.0083 13.5001Z" clip-rule="evenodd" fill="#FFFFFF" fill-opacity="1.000000" fill-rule="evenodd" mask="url(#mask_2403_583)"/>
		<path id="Subtract" d="M11.9099 29.5888C13.1227 30.0041 14.4198 30.229 15.7678 30.229C17.0773 30.229 18.3386 30.0168 19.5212 29.624C20.0016 29.4645 20.469 29.2751 20.9214 29.0581C21.1216 28.9621 21.342 28.9294 21.5519 28.9591C21.7703 28.9901 21.9773 29.0888 22.1384 29.2542L23.4993 30.6516L23.9644 31.1292C24.2319 31.4039 24.6733 31.4039 24.9409 31.1292C25.1987 30.8645 25.1987 30.4427 24.9409 30.1781L24.6277 29.8565L23.5842 28.7849C23.2336 28.4247 23.2153 27.8783 23.4763 27.472C23.5323 27.3849 23.601 27.3043 23.6821 27.2333C24.0515 26.9097 24.402 26.5639 24.7317 26.198C26.7597 23.9465 28 20.9299 28 17.6145C28 10.6477 22.5234 5 15.7678 5C9.01221 5 3.53564 10.6477 3.53564 17.6145C3.53564 20.8871 4.74406 23.8686 6.72592 26.1103C7.05398 26.4814 7.40325 26.8322 7.77173 27.1608C7.88747 27.264 7.97758 27.387 8.04051 27.5202C8.22371 27.9079 8.17672 28.382 7.86182 28.7053L6.81304 29.7822L6.42749 30.1781C6.16992 30.4427 6.16992 30.8645 6.42749 31.1292C6.69507 31.4039 7.13672 31.4039 7.4043 31.1292L7.93352 30.5857L9.28394 29.199C9.42459 29.0545 9.60017 28.9611 9.7877 28.9191C10.0249 28.8659 10.2813 28.8951 10.5103 29.0076C10.9622 29.2298 11.4294 29.4242 11.9099 29.5888ZM12.1474 28.1908C13.2799 28.6031 14.4985 28.8274 15.7678 28.8274C17.0033 28.8274 18.1906 28.6149 19.2973 28.2234C20.951 27.6385 22.4247 26.6539 23.6099 25.3815C25.4871 23.3665 26.6409 20.6294 26.6409 17.6145C26.6409 12.8433 23.7513 8.7682 19.6784 7.14869C18.4649 6.66615 17.1463 6.40161 15.7678 6.40161C14.4125 6.40161 13.1152 6.65732 11.9186 7.12449C7.81337 8.72732 4.89478 12.8194 4.89478 17.6145C4.89478 20.5903 6.01885 23.2954 7.85304 25.3028C9.02898 26.5897 10.4968 27.5899 12.1474 28.1908ZM16.5708 10.4456L16.5708 9.94092C16.5708 9.5094 16.2209 9.15967 15.7896 9.15967C15.3582 9.15967 15.0083 9.5094 15.0083 9.94092L15.0083 18.1663C15.0083 18.5857 15.3484 18.9257 15.7676 18.9257C16.2112 18.9257 16.5708 18.5662 16.5708 18.1226L16.5708 10.4456Z" clip-rule="evenodd" fill="#FFFFFF" fill-opacity="1.000000" fill-rule="evenodd"/>
		<rect id="Rectangle 12" x="15.000000" y="6.000000" width="4.000000" height="1.500000" transform="rotate(-90 15.000000 6.000000)" fill="#FFFFFF" fill-opacity="1.000000"/>
		<rect id="Rectangle 13" x="8.000000" y="2.000000" rx="0.750000" width="15.500000" height="1.500000" fill="#FFFFFF" fill-opacity="1.000000"/>
	</g>
</svg>
