<svg width="30.000000" height="32.000000" viewBox="0 0 30 32" fill="none" xmlns="http://www.w3.org/2000/svg" xmlns:xlink="http://www.w3.org/1999/xlink">
	<desc>
			Created with Pixso.
	</desc>
	<defs>
		<clipPath id="clip2403_529">
			<rect id="icon_leaf" width="30.000000" height="32.000000" fill="white" fill-opacity="0"/>
		</clipPath>
	</defs>
	<rect id="icon_leaf" width="30.000000" height="32.000000" fill="#FFFFFF" fill-opacity="0"/>
	<g clip-path="url(#clip2403_529)">
		<path id="Vector" d="M608.438 137.999L632.812 137.999L632.812 155.999L619.688 155.999" stroke="#FFFFFF" stroke-opacity="1.000000" stroke-width="2.000000" stroke-linejoin="round" stroke-linecap="round"/>
		<path id="Vector" d="M612.188 155.999L608.438 155.999L608.438 141.999" stroke="#FFFFFF" stroke-opacity="1.000000" stroke-width="2.000000" stroke-linejoin="round" stroke-linecap="round"/>
		<path id="Vector" d="M619.688 156L612.188 162L612.188 156" stroke="#FFFFFF" stroke-opacity="1.000000" stroke-width="2.000000" stroke-linejoin="round" stroke-linecap="round"/>
		<path id="Vector" d="M27.8438 2.76697C27.7434 2.31702 27.3646 2 26.9325 2C26.9307 2 26.9287 2 26.9269 2C21.989 2.03296 9.98157 2.91602 5.13379 10.38C2.6156 14.2581 2.39905 19.293 4.48962 25.345C4.50562 25.392 4.53845 25.424 4.55994 25.467C3.81274 27.4399 3.52307 28.7531 3.51562 28.79C3.40686 29.33 3.73035 29.8621 4.23657 29.978C4.30212 29.993 4.3678 30 4.43347 30C4.8656 30 5.25464 29.679 5.34937 29.21C5.36902 29.108 7.75781 18.837 16.2028 12.832C16.634 12.526 16.7502 11.905 16.4625 11.4449C16.1747 10.985 15.5934 10.86 15.1622 11.168C10.3734 14.573 7.42407 19.176 5.6897 22.824C4.44849 18.246 4.77368 14.447 6.6759 11.519C10.4193 5.755 19.2985 4.36499 24.6581 4.07104C23.505 5.87195 22.245 9.17395 22.245 15C22.245 18.12 21.4153 20.522 19.7803 22.14C17.1591 24.731 12.9009 24.974 9.7865 24.724C9.26904 24.679 8.81995 25.095 8.78064 25.646C8.74121 26.196 9.12842 26.676 9.64404 26.718C10.2675 26.769 10.9331 26.8 11.625 26.8C14.7957 26.8 18.494 26.137 21.0543 23.606C23.0887 21.595 24.12 18.7 24.12 15.001C24.12 5.90198 27.3356 3.90503 27.3516 3.896C27.7416 3.68701 27.9459 3.21899 27.8438 2.76697Z" fill="#FFFFFF" fill-opacity="1.000000" fill-rule="nonzero"/>
	</g>
</svg>
