<svg width="29.000000" height="31.000000" viewBox="0 0 29 31" fill="none" xmlns="http://www.w3.org/2000/svg" xmlns:xlink="http://www.w3.org/1999/xlink">
	<desc>
			Created with Pixso.
	</desc>
	<defs>
		<clipPath id="clip2403_540">
			<rect id="icon_tub" width="29.000000" height="31.000000" fill="white" fill-opacity="0"/>
		</clipPath>
	</defs>
	<rect id="icon_tub" width="29.000000" height="31.000000" fill="#FFFFFF" fill-opacity="0"/>
	<g clip-path="url(#clip2403_540)">
		<path id="Vector" d="M20.7762 18.473C19.0702 18.473 17.6877 19.9513 17.6877 21.774C17.6877 23.5981 19.0707 25.076 20.7762 25.076C22.4818 25.076 23.8643 23.5977 23.8643 21.774C23.8643 19.9508 22.4813 18.473 20.7762 18.473ZM20.7762 23.4863C19.8922 23.4863 19.1754 22.72 19.1754 21.775C19.1754 20.829 19.8922 20.0632 20.7762 20.0632C21.6603 20.0632 22.3776 20.829 22.3776 21.775C22.3776 22.72 21.6603 23.4863 20.7762 23.4863Z" fill="#FFFFFF" fill-opacity="1.000000" fill-rule="nonzero"/>
		<path id="Vector" d="M11.6068 -0.0101318C9.84644 -0.0101318 8.41956 1.51465 8.41956 3.39697C8.41956 5.2793 9.84595 6.80359 11.6068 6.80359C13.3677 6.80359 14.7941 5.27979 14.7941 3.39697C14.7937 1.51416 13.3672 -0.0101318 11.6068 -0.0101318ZM11.6063 5.4657C10.5375 5.4657 9.67114 4.53955 9.67114 3.39648C9.67114 2.25378 10.5375 1.32727 11.6063 1.32727C12.6758 1.32727 13.5421 2.25378 13.5421 3.39648C13.5421 4.53955 12.6758 5.4657 11.6063 5.4657Z" fill="#FFFFFF" fill-opacity="1.000000" fill-rule="nonzero"/>
		<path id="Vector" d="M8.22693 17.6104C6.93323 17.6104 5.88562 18.7302 5.88562 20.1132C5.88562 21.4955 6.93323 22.6158 8.22693 22.6158C9.52063 22.6158 10.5682 21.4955 10.5682 20.1132C10.5682 18.7307 9.52063 17.6104 8.22693 17.6104ZM8 19.4999C7.54102 19.4999 9.1582 20.6038 9.1582 20.1132C9.1582 19.6234 7.54102 20.4999 8 20.4999C8.45862 20.4999 9.05701 19.6224 9.05701 20.1122C9.05701 20.6028 8.45862 19.4999 8 19.4999Z" fill="#FFFFFF" fill-opacity="1.000000" fill-rule="nonzero"/>
		<path id="Vector" d="M18.5002 9.76257C18.5002 9.76257 21.5403 8.92407 24.6781 11.2563C25.5853 12.0164 26.4435 12.5928 25.8304 13.3789C25.4869 13.7194 25.1934 14.0356 24.1144 12.8547C23.0604 12.0948 21.3948 10.9565 18.5002 11.4133C17.3724 11.6497 16.5386 11.964 14.9446 13.5625C13.351 15.1609 10.9724 16.2876 8.44714 16.0516C5.92188 15.8163 4.59839 14.7937 3.20093 13.5096C2.90686 13.0902 2.90686 12.6445 3.07812 12.3826C3.24939 12.1205 3.91138 11.8584 4.2793 12.2512C4.64722 12.6445 6.3877 14.2168 8.10376 14.3214C9.82019 14.4261 11.5366 14.5312 13.8407 12.3558C16.1467 10.182 17.299 10.0245 18.5002 9.76257Z" fill="#FFFFFF" fill-opacity="1.000000" fill-rule="nonzero"/>
		<path id="Vector" d="M28.6456 26.8154L28.6456 8.15735C28.6456 7.57898 28.2719 7.50732 28.1218 7.50195L27.6161 7.50195C27.1227 7.50195 27.0796 8.05847 27.0782 8.2406C27.0782 8.25854 27.0782 8.27356 27.0782 8.2915C27.0782 8.29297 27.0782 8.30115 27.0782 8.30115C27.0796 11.9098 27.0874 26.5543 27.0764 26.8411C27.0642 27.1691 27.0031 28.0074 26.2554 28.7283C25.447 29.4233 24.6378 29.3313 24.6378 29.3313C24.6378 29.3313 4.46057 29.3313 3.98254 29.3047C3.60278 29.2393 2.9408 29.0948 2.37659 28.2957C1.81299 27.4965 1.92346 26.4482 1.92346 26.4482L1.92346 8.3147C1.92346 7.47632 1.24927 7.50244 1.24927 7.50244L0.942017 7.50244C0.406006 7.50244 0.356567 8.09045 0.353882 8.27893C0.353882 11.7407 0.353882 25.6466 0.353882 26.8159C0.353882 28.1528 0.807495 29.2136 1.90173 30.1528C2.99561 31.0916 4.27661 31.0092 4.27661 31.0092C4.27661 31.0092 24.0002 31.0092 24.8584 31.0067C25.7167 31.0043 26.844 30.5902 27.7743 29.4514C28.7036 28.3126 28.6456 26.8154 28.6456 26.8154Z" fill="#FFFFFF" fill-opacity="1.000000" fill-rule="nonzero"/>
		<path id="Vector" d="M28.6456 26.8154L28.6456 8.15735C28.6456 7.57898 28.2719 7.50732 28.1218 7.50195L27.6161 7.50195C27.1227 7.50195 27.0796 8.05847 27.0782 8.2406L27.0782 8.30115C27.0785 8.71765 27.0787 9.28101 27.079 9.95239C27.0812 15.0985 27.0861 26.5874 27.0764 26.8411C27.0714 26.9775 27.0579 27.2023 26.9899 27.4702C26.8945 27.8463 26.692 28.3074 26.2554 28.7283C25.447 29.4233 24.6378 29.3313 24.6378 29.3313C24.6378 29.3313 4.46057 29.3313 3.98254 29.3047C3.60278 29.2393 2.9408 29.0948 2.37659 28.2957C2.1947 28.0377 2.08301 27.7539 2.01514 27.4878C2.01416 27.4836 2.01306 27.4794 2.01196 27.4752C1.87354 26.922 1.92346 26.4482 1.92346 26.4482L1.92346 8.3147C1.92346 7.47632 1.24927 7.50244 1.24927 7.50244L0.942017 7.50244C0.406006 7.50244 0.356567 8.09045 0.353882 8.27893L0.353882 26.8159C0.353882 27.0475 0.367432 27.2708 0.39563 27.4865C0.530151 28.5166 0.996948 29.3762 1.90173 30.1528C2.99561 31.0916 4.27661 31.0092 4.27661 31.0092C4.27661 31.0092 21.46 31.0092 24.4471 31.0072C24.5188 31.0071 24.5823 31.0071 24.6372 31.0071C24.7456 31.007 24.8204 31.0068 24.8584 31.0067C25.7167 31.0043 26.844 30.5902 27.7743 29.4514C28.3103 28.7946 28.5179 28.0186 28.5975 27.4792C28.656 27.0836 28.6456 26.8154 28.6456 26.8154Z" fill="#FFFFFF" fill-opacity="1.000000" fill-rule="evenodd"/>
	</g>
</svg>
