<svg width="27.000000" height="34.000000" viewBox="0 0 27 34" fill="none" xmlns="http://www.w3.org/2000/svg" xmlns:xlink="http://www.w3.org/1999/xlink">
	<desc>
			Created with Pixso.
	</desc>
	<defs>
		<clipPath id="clip2403_1521">
			<rect id="Лого_html 1" width="27.000000" height="34.000000" fill="white" fill-opacity="0"/>
		</clipPath>
	</defs>
	<rect id="Лого_html 1" width="27.000000" height="34.000000" fill="#FFFFFF" fill-opacity="0"/>
	<g clip-path="url(#clip2403_1521)">
		<path id="html academy " d="M13.6426 0.015625L13.5 0L0 1.40723L0 26.0127L13.5 34L27 26.0127L27 1.40723L13.6426 0.015625ZM25.2344 25.0151L13.5 31.957L1.76562 25.0151L1.76562 14.9292L13.4507 21.8452L13.4701 23.0986L5.45349 18.355L5.44299 19.5801L13.4894 24.3887L13.5088 25.6748L5.46411 20.9175L5.45349 22.1426L13.5 26.9512L21.6239 22.1182L21.6239 20.8931L21.6239 16.9092L25.2432 14.7593L25.2344 25.0151ZM25.2344 13.4521L22.0148 15.332L20.5326 16.207L13.4666 12.02L13.4559 13.2456L19.4957 16.8179L19.4429 16.8496L19.3126 16.9248L18.4536 17.4165L13.4666 14.4688L13.4559 15.6943L17.3921 18.0225L16.4591 18.6313L16.438 18.6436L13.4666 16.9019L13.4559 18.1274L15.403 19.2617L13.4155 20.4482L1.79724 13.5762L13.4348 6.61816L25.2344 13.4521ZM25.2344 12.2266L13.4402 5.31055L1.76562 12.2197L1.76562 2.98975L13.5 1.76465L25.2344 2.98975L25.2344 12.2266Z" fill="#666666" fill-opacity="1.000000" fill-rule="nonzero"/>
	</g>
</svg>
