<svg width="20.000000" height="20.000000" viewBox="0 0 20 20" fill="none" xmlns="http://www.w3.org/2000/svg" xmlns:xlink="http://www.w3.org/1999/xlink">
	<desc>
			Created with Pixso.
	</desc>
	<defs>
		<clipPath id="clip153_253">
			<rect id="phone 1" width="20.000000" height="20.000000" fill="white" fill-opacity="0"/>
		</clipPath>
	</defs>
	<rect id="phone 1" width="20.000000" height="20.000000" fill="#FFFFFF" fill-opacity="0"/>
	<g clip-path="url(#clip153_253)">
		<path id="Vector" d="M17.9 9.4L9.39 9.4L9.39 10.6L17.9 10.6L15.8 12.7L16.7 13.6L19.79 10.5C19.89 10.37 19.95 10.21 19.95 10.05C19.95 9.88 19.89 9.72 19.79 9.59L16.7 6.5L15.8 7.4L17.9 9.4Z" fill="#000000" fill-opacity="1.000000" fill-rule="nonzero"/>
		<path id="Vector" d="M8.1 19.4L8.1 13.2C8.08 13.04 8.02 12.89 7.91 12.78C7.8 12.67 7.65 12.61 7.5 12.6L3.1 12.6C3.1 12.91 3.23 13.21 3.45 13.44C3.68 13.66 3.98 13.79 4.3 13.8L6.8 13.8L6.8 18.79L3.1 18.79C2.86 18.81 2.62 18.78 2.4 18.7C2.17 18.62 1.97 18.5 1.79 18.34C1.61 18.18 1.47 17.99 1.37 17.78C1.26 17.56 1.21 17.33 1.2 17.1L1.2 3.1C1.19 2.63 1.36 2.18 1.68 1.85C2 1.51 2.43 1.31 2.9 1.29L6.8 1.29L6.8 6.29L4.4 6.29C4.08 6.3 3.78 6.43 3.55 6.65C3.33 6.88 3.2 7.18 3.2 7.5L7.6 7.5C7.75 7.48 7.9 7.42 8.01 7.31C8.12 7.2 8.18 7.05 8.2 6.9L8.2 0.6C8.15 0.44 8.06 0.3 7.93 0.19C7.81 0.09 7.66 0.02 7.5 0L3.1 0C2.7 -0.02 2.31 0.05 1.94 0.18C1.57 0.32 1.23 0.53 0.94 0.8C0.66 1.07 0.42 1.4 0.26 1.75C0.1 2.11 0.01 2.5 0 2.9L0 16.79C-0.03 17.19 0.02 17.59 0.15 17.97C0.29 18.34 0.49 18.69 0.77 18.98C1.04 19.27 1.37 19.5 1.74 19.66C2.1 19.82 2.5 19.9 2.9 19.9L7.5 19.9C7.57 19.91 7.64 19.91 7.72 19.89C7.79 19.87 7.86 19.84 7.92 19.79C7.97 19.74 8.02 19.68 8.05 19.61C8.08 19.54 8.1 19.47 8.1 19.4Z" fill="#000000" fill-opacity="1.000000" fill-rule="nonzero"/>
	</g>
</svg>
