<svg width="22.148148" height="12.363525" viewBox="0 0 22.1481 12.3635" fill="none" xmlns="http://www.w3.org/2000/svg" xmlns:xlink="http://www.w3.org/1999/xlink">
	<desc>
			Created with Pixso.
	</desc>
	<defs/>
	<path id="Vector" d="M0 1.70093C0 1.0791 0.423119 0.743652 1.26936 0.695068L4.5303 0.713379C4.74916 0.713379 4.89507 0.804688 4.96802 0.987549C5.30359 1.9021 5.67929 2.69165 6.09512 3.3562C6.51094 4.02051 7.05444 4.78564 7.72559 5.65137C7.78395 5.76123 7.87879 5.81592 8.0101 5.81592C8.11224 5.81592 8.19248 5.77344 8.25084 5.68799L8.3165 5.48682L8.33839 2.32275C8.33839 2.10327 8.27637 1.95703 8.15236 1.88379C8.02834 1.81055 7.79855 1.75586 7.46297 1.71924C7.20034 1.68262 7.06902 1.54858 7.06902 1.31689C7.06902 1.26807 7.07632 1.23145 7.09091 1.20703C7.39731 0.414551 8.27273 0.0183105 9.71717 0.0183105L10.9428 0C11.4972 0 11.9568 0.115723 12.3215 0.347412C12.6863 0.579102 12.8687 0.945068 12.8687 1.44482L12.8687 5.59644C12.9708 5.65747 13.0657 5.68799 13.1532 5.68799C13.3721 5.68799 13.5617 5.57837 13.7222 5.35889C15.3272 3.4812 16.1953 2.2251 16.3266 1.59106C16.3266 1.5791 16.3412 1.54858 16.3704 1.49976C16.4725 1.31689 16.6403 1.15845 16.8737 1.02417C17.1072 0.890137 17.3114 0.798584 17.4865 0.749756C17.5449 0.725586 17.6105 0.713379 17.6835 0.713379L21.0758 0.713379L21.2946 0.731689C21.5864 0.731689 21.8126 0.847412 21.9731 1.0791C22.0314 1.15234 22.0715 1.23145 22.0934 1.31689C22.1153 1.4021 22.1299 1.48755 22.1372 1.573C22.1445 1.6582 22.1481 1.70703 22.1481 1.71924L22.1481 1.84717C22.046 2.34717 21.787 2.88062 21.3712 3.44751C20.9554 4.0144 20.4265 4.6272 19.7845 5.28564C19.1425 5.94409 18.7413 6.37695 18.5808 6.58423C18.4495 6.73047 18.3838 6.8645 18.3838 6.98657C18.3838 7.08398 18.4422 7.19385 18.5589 7.31567L21.7542 10.6809C21.9293 10.8762 22.0168 11.0894 22.0168 11.321C22.0168 11.6016 21.8855 11.8333 21.6229 12.0161C21.3603 12.199 21.0466 12.3027 20.6818 12.3271L20.3098 12.3455L16.9832 12.3455C16.9686 12.3455 16.9394 12.3484 16.8956 12.3545C16.8519 12.3606 16.8227 12.3635 16.8081 12.3635C16.4871 12.3635 16.188 12.2478 15.9108 12.0161C15.8086 11.9187 15.1229 11.1992 13.8535 9.85791C13.7806 9.77271 13.6785 9.69336 13.5471 9.62012C13.4888 9.81543 13.4122 10.0957 13.3173 10.4614C13.2225 10.8274 13.1532 11.0894 13.1094 11.248L13.0438 11.5588C12.8979 11.9856 12.5915 12.2417 12.1246 12.3271L11.8182 12.3455L9.6734 12.3455C8.4624 12.3455 7.25505 11.8821 6.05135 10.9553C4.84764 10.0288 3.76431 8.83081 2.80135 7.36157C1.83839 5.89233 0.941078 4.18213 0.109428 2.2312C0.0364761 2.07275 0 1.896 0 1.70093ZM13.1532 6.43799C12.8468 6.43799 12.5696 6.36768 12.3215 6.22754C12.0735 6.0874 11.9495 5.89526 11.9495 5.65137L11.9495 1.44482C11.9495 1.20093 11.8765 1.02734 11.7306 0.923584C11.5847 0.820068 11.3294 0.768066 10.9646 0.768066L9.71717 0.804688C9.08979 0.804688 8.6156 0.89624 8.29462 1.0791C8.93659 1.33521 9.25758 1.74976 9.25758 2.32275L9.25758 5.54175C9.22839 5.84644 9.0825 6.09961 8.81986 6.30078C8.55724 6.50195 8.26543 6.60254 7.94444 6.60254C7.50674 6.60254 7.17116 6.42578 6.93771 6.07202C5.79967 4.6333 4.95342 3.26782 4.39899 1.97534L4.20202 1.49976L1.29124 1.48145C1.10157 1.48145 0.995789 1.49048 0.973907 1.50879C0.952019 1.5271 0.941078 1.5791 0.941078 1.66431C0.941078 1.77417 0.955666 1.88989 0.984848 2.01172L1.44444 3.03613C2.67004 5.68188 4.0014 7.76685 5.43855 9.29102C6.8757 10.8152 8.28732 11.5771 9.6734 11.5771L11.862 11.5771C11.9495 11.5771 12.0152 11.5559 12.0589 11.5132C12.1027 11.4705 12.1392 11.3882 12.1684 11.2664L12.2121 11.0835L12.6279 9.47388C12.7447 9.25439 12.8468 9.10815 12.9343 9.03491C13.0948 8.90088 13.2845 8.83374 13.5034 8.83374C13.8535 8.83374 14.211 9.0105 14.5758 9.36426L16.436 11.3394C16.5527 11.498 16.6768 11.5771 16.8081 11.5771L20.4192 11.5771C20.8569 11.5771 21.0758 11.4858 21.0758 11.3027C21.0758 11.2419 21.0539 11.1809 21.0101 11.1199L17.8367 7.80957C17.5887 7.55347 17.4646 7.2793 17.4646 6.98657C17.4646 6.69385 17.5814 6.41357 17.8148 6.14526C18.0045 5.90137 18.3729 5.49585 18.92 4.92896C19.4672 4.36206 19.945 3.83154 20.3535 3.33789C20.7621 2.84399 21.032 2.396 21.1633 1.99365L21.229 1.75586C21.2144 1.73145 21.2071 1.69165 21.2071 1.63696C21.2071 1.58203 21.1998 1.53638 21.1852 1.49976L17.7492 1.49976C17.5303 1.573 17.3552 1.68262 17.2239 1.82886L17.0926 2.17651C16.7278 3.01782 15.7722 4.31641 14.2256 6.07202C13.9192 6.31592 13.5617 6.43799 13.1532 6.43799Z" fill="#666666" fill-opacity="1.000000" fill-rule="nonzero"/>
</svg>
